{
	"asset":{
		"generator":"Khronos glTF Blender I/O v4.4.55",
		"version":"2.0"
	},
	"scene":0,
	"scenes":[
		{
			"name":"Scene",
			"nodes":[
				0,
				1,
				2,
				3,
				4,
				5
			]
		}
	],
	"nodes":[
		{
			"mesh":0,
			"name":"Cylinder.005",
			"rotation":[
				0,
				-0.9766750335693359,
				0,
				0.21472279727458954
			],
			"scale":[
				1,
				0.009866085834801197,
				1
			],
			"translation":[
				-2.986295223236084,
				1.6578733921051025,
				0.4248230457305908
			]
		},
		{
			"mesh":1,
			"name":"Cylinder.004",
			"rotation":[
				0,
				-0.9766750335693359,
				0,
				0.21472279727458954
			],
			"scale":[
				1,
				0.009866085834801197,
				1
			],
			"translation":[
				-2.986295223236084,
				1.6388368606567383,
				0.4248230457305908
			]
		},
		{
			"mesh":2,
			"name":"Cylinder.003",
			"rotation":[
				0,
				-0.9766750335693359,
				0,
				0.21472279727458954
			],
			"scale":[
				1,
				0.03114897385239601,
				1
			],
			"translation":[
				-2.986295223236084,
				1.5983033180236816,
				0.4248230457305908
			]
		},
		{
			"mesh":3,
			"name":"Cylinder.002",
			"rotation":[
				0,
				-0.9766750335693359,
				0,
				0.21472279727458954
			],
			"scale":[
				1,
				0.03114897385239601,
				1
			],
			"translation":[
				-2.986295223236084,
				1.3765394687652588,
				0.4248230457305908
			]
		},
		{
			"mesh":4,
			"name":"Cylinder.001",
			"rotation":[
				0,
				-0.9766750335693359,
				0,
				0.21472279727458954
			],
			"scale":[
				1,
				0.08070529997348785,
				1
			],
			"translation":[
				-2.986295223236084,
				1.487722635269165,
				0.4248230457305908
			]
		},
		{
			"mesh":5,
			"name":"Cylinder",
			"rotation":[
				0,
				-0.9766750335693359,
				0,
				0.21472279727458954
			],
			"scale":[
				1,
				0.08070529997348785,
				1
			],
			"translation":[
				-2.986295223236084,
				1.2663509845733643,
				0.4248230457305908
			]
		}
	],
	"materials":[
		{
			"doubleSided":true,
			"name":"Material.017",
			"pbrMetallicRoughness":{
				"baseColorFactor":[
					0.947300374507904,
					0.9215826392173767,
					0.7912984490394592,
					1
				],
				"metallicFactor":0,
				"roughnessFactor":0.5
			}
		},
		{
			"doubleSided":true,
			"name":"Material.016",
			"pbrMetallicRoughness":{
				"baseColorFactor":[
					0.06263633072376251,
					0.00581786222755909,
					0.012226514518260956,
					1
				],
				"metallicFactor":0,
				"roughnessFactor":0.5
			}
		},
		{
			"doubleSided":true,
			"name":"Material.015",
			"pbrMetallicRoughness":{
				"baseColorFactor":[
					0.9822446703910828,
					0.47353172302246094,
					0.8227862119674683,
					1
				],
				"metallicFactor":0,
				"roughnessFactor":0.5
			}
		},
		{
			"doubleSided":true,
			"name":"Material.014",
			"pbrMetallicRoughness":{
				"baseColorFactor":[
					0.9822446703910828,
					0.47353172302246094,
					0.8227862119674683,
					1
				],
				"metallicFactor":0,
				"roughnessFactor":0.5
			}
		},
		{
			"doubleSided":true,
			"name":"Material.013",
			"pbrMetallicRoughness":{
				"baseColorFactor":[
					0.5338304042816162,
					0.12775400280952454,
					0.03321308270096779,
					1
				],
				"metallicFactor":0,
				"roughnessFactor":0.5
			}
		},
		{
			"doubleSided":true,
			"name":"Material.012",
			"pbrMetallicRoughness":{
				"baseColorFactor":[
					0.5338304042816162,
					0.12775400280952454,
					0.03321308270096779,
					1
				],
				"metallicFactor":0,
				"roughnessFactor":0.5
			}
		}
	],
	"meshes":[
		{
			"name":"Cylinder.007",
			"primitives":[
				{
					"attributes":{
						"POSITION":0,
						"NORMAL":1,
						"TEXCOORD_0":2
					},
					"indices":3,
					"material":0
				}
			]
		},
		{
			"name":"Cylinder.006",
			"primitives":[
				{
					"attributes":{
						"POSITION":4,
						"NORMAL":5,
						"TEXCOORD_0":6
					},
					"indices":3,
					"material":1
				}
			]
		},
		{
			"name":"Cylinder.005",
			"primitives":[
				{
					"attributes":{
						"POSITION":7,
						"NORMAL":8,
						"TEXCOORD_0":9
					},
					"indices":3,
					"material":2
				}
			]
		},
		{
			"name":"Cylinder.004",
			"primitives":[
				{
					"attributes":{
						"POSITION":10,
						"NORMAL":11,
						"TEXCOORD_0":12
					},
					"indices":3,
					"material":3
				}
			]
		},
		{
			"name":"Cylinder.003",
			"primitives":[
				{
					"attributes":{
						"POSITION":13,
						"NORMAL":14,
						"TEXCOORD_0":15
					},
					"indices":3,
					"material":4
				}
			]
		},
		{
			"name":"Cylinder.002",
			"primitives":[
				{
					"attributes":{
						"POSITION":16,
						"NORMAL":17,
						"TEXCOORD_0":18
					},
					"indices":3,
					"material":5
				}
			]
		}
	],
	"accessors":[
		{
			"bufferView":0,
			"componentType":5126,
			"count":72,
			"max":[
				0.7600002288818359,
				1.335566520690918,
				0.7600002288818359
			],
			"min":[
				-0.7600002288818359,
				-1,
				-0.7600002288818359
			],
			"type":"VEC3"
		},
		{
			"bufferView":1,
			"componentType":5126,
			"count":72,
			"type":"VEC3"
		},
		{
			"bufferView":2,
			"componentType":5126,
			"count":72,
			"type":"VEC2"
		},
		{
			"bufferView":3,
			"componentType":5123,
			"count":132,
			"type":"SCALAR"
		},
		{
			"bufferView":4,
			"componentType":5126,
			"count":72,
			"max":[
				0.7600002288818359,
				1,
				0.7600002288818359
			],
			"min":[
				-0.7600002288818359,
				-1,
				-0.7600002288818359
			],
			"type":"VEC3"
		},
		{
			"bufferView":5,
			"componentType":5126,
			"count":72,
			"type":"VEC3"
		},
		{
			"bufferView":6,
			"componentType":5126,
			"count":72,
			"type":"VEC2"
		},
		{
			"bufferView":7,
			"componentType":5126,
			"count":72,
			"max":[
				0.7600002288818359,
				1,
				0.7600002288818359
			],
			"min":[
				-0.7600002288818359,
				-1,
				-0.7600002288818359
			],
			"type":"VEC3"
		},
		{
			"bufferView":8,
			"componentType":5126,
			"count":72,
			"type":"VEC3"
		},
		{
			"bufferView":9,
			"componentType":5126,
			"count":72,
			"type":"VEC2"
		},
		{
			"bufferView":10,
			"componentType":5126,
			"count":72,
			"max":[
				0.7600002288818359,
				1,
				0.7600002288818359
			],
			"min":[
				-0.7600002288818359,
				-1,
				-0.7600002288818359
			],
			"type":"VEC3"
		},
		{
			"bufferView":11,
			"componentType":5126,
			"count":72,
			"type":"VEC3"
		},
		{
			"bufferView":12,
			"componentType":5126,
			"count":72,
			"type":"VEC2"
		},
		{
			"bufferView":13,
			"componentType":5126,
			"count":72,
			"max":[
				0.7600002288818359,
				1,
				0.7600002288818359
			],
			"min":[
				-0.7600002288818359,
				-1,
				-0.7600002288818359
			],
			"type":"VEC3"
		},
		{
			"bufferView":14,
			"componentType":5126,
			"count":72,
			"type":"VEC3"
		},
		{
			"bufferView":15,
			"componentType":5126,
			"count":72,
			"type":"VEC2"
		},
		{
			"bufferView":16,
			"componentType":5126,
			"count":72,
			"max":[
				0.7600002288818359,
				1,
				0.7600002288818359
			],
			"min":[
				-0.7600002288818359,
				-1,
				-0.7600002288818359
			],
			"type":"VEC3"
		},
		{
			"bufferView":17,
			"componentType":5126,
			"count":72,
			"type":"VEC3"
		},
		{
			"bufferView":18,
			"componentType":5126,
			"count":72,
			"type":"VEC2"
		}
	],
	"bufferViews":[
		{
			"buffer":0,
			"byteLength":864,
			"byteOffset":0,
			"target":34962
		},
		{
			"buffer":0,
			"byteLength":864,
			"byteOffset":864,
			"target":34962
		},
		{
			"buffer":0,
			"byteLength":576,
			"byteOffset":1728,
			"target":34962
		},
		{
			"buffer":0,
			"byteLength":264,
			"byteOffset":2304,
			"target":34963
		},
		{
			"buffer":0,
			"byteLength":864,
			"byteOffset":2568,
			"target":34962
		},
		{
			"buffer":0,
			"byteLength":864,
			"byteOffset":3432,
			"target":34962
		},
		{
			"buffer":0,
			"byteLength":576,
			"byteOffset":4296,
			"target":34962
		},
		{
			"buffer":0,
			"byteLength":864,
			"byteOffset":4872,
			"target":34962
		},
		{
			"buffer":0,
			"byteLength":864,
			"byteOffset":5736,
			"target":34962
		},
		{
			"buffer":0,
			"byteLength":576,
			"byteOffset":6600,
			"target":34962
		},
		{
			"buffer":0,
			"byteLength":864,
			"byteOffset":7176,
			"target":34962
		},
		{
			"buffer":0,
			"byteLength":864,
			"byteOffset":8040,
			"target":34962
		},
		{
			"buffer":0,
			"byteLength":576,
			"byteOffset":8904,
			"target":34962
		},
		{
			"buffer":0,
			"byteLength":864,
			"byteOffset":9480,
			"target":34962
		},
		{
			"buffer":0,
			"byteLength":864,
			"byteOffset":10344,
			"target":34962
		},
		{
			"buffer":0,
			"byteLength":576,
			"byteOffset":11208,
			"target":34962
		},
		{
			"buffer":0,
			"byteLength":864,
			"byteOffset":11784,
			"target":34962
		},
		{
			"buffer":0,
			"byteLength":864,
			"byteOffset":12648,
			"target":34962
		},
		{
			"buffer":0,
			"byteLength":576,
			"byteOffset":13512,
			"target":34962
		}
	],
	"buffers":[
		{
			"byteLength":14088,
			"uri":"CircularCake.bin"
		}
	]
}
